<svg width="24" height="24" viewBox="0 0 24 24" fill="none" xmlns="http://www.w3.org/2000/svg">
    <g clip-path="url(#clip0_2074_302)">
        <path d="M22 12.6354C22 11.7799 21.9319 11.1557 21.7846 10.5083H12.2041V14.3694H17.8276C17.7143 15.3289 17.1021 16.7739 15.7415 17.7449L15.7224 17.8742L18.7516 20.2669L18.9615 20.2882C20.8889 18.4732 22 15.8028 22 12.6354Z"
              fill="#5A96F5"/>
        <path d="M12.2041 22.8083C14.9591 22.8083 17.272 21.8834 18.9614 20.2882L15.7415 17.7449C14.8798 18.3576 13.7233 18.7853 12.2041 18.7853C9.50569 18.7853 7.21545 16.9704 6.39905 14.4618L6.27938 14.4722L3.1296 16.9576L3.08841 17.0744C4.7664 20.4731 8.21312 22.8083 12.2041 22.8083Z"
              fill="#3ABB5D"/>
        <path d="M6.39905 14.4619C6.18363 13.8145 6.05897 13.1209 6.05897 12.4042C6.05897 11.6874 6.18363 10.9938 6.38772 10.3465L6.38201 10.2086L3.19276 7.68321L3.08841 7.73382C2.39683 9.14418 2 10.728 2 12.4042C2 14.0804 2.39683 15.6641 3.08841 17.0745L6.39905 14.4619Z"
              fill="#F8D81C"/>
        <path d="M12.2041 6.02292C14.1202 6.02292 15.4126 6.86681 16.1496 7.57202L19.0294 4.70508C17.2608 3.02886 14.9591 2 12.2041 2C8.21312 2 4.7664 4.33514 3.08841 7.73381L6.38772 10.3464C7.21545 7.83789 9.50569 6.02292 12.2041 6.02292Z"
              fill="#EC594C"/>
    </g>
    <defs>
        <clipPath id="clip0_2074_302">
            <rect width="24" height="24" fill="white"/>
        </clipPath>
    </defs>
</svg>
