<svg width="32" height="32" viewBox="0 0 32 32" fill="none" xmlns="http://www.w3.org/2000/svg">
    <path d="M31.2747 7.712C30.9147 8.844 30.4293 9.82933 29.8213 10.724L29.8467 10.684C29.2493 11.6796 28.536 12.8298 27.7067 14.1347C26.9956 15.1649 26.6191 15.6982 26.5773 15.7347C26.3933 15.9653 26.2653 16.248 26.2213 16.5587L26.22 16.568C26.256 16.8507 26.3867 17.0973 26.5773 17.2813L27.1107 17.876C29.964 20.8084 31.5689 22.8298 31.9253 23.94C31.972 24.0627 31.9987 24.204 31.9987 24.352C31.9987 24.6107 31.916 24.8493 31.776 25.0453L31.7787 25.0413C31.544 25.2827 31.216 25.432 30.8533 25.432C30.8133 25.432 30.772 25.4307 30.7333 25.4267H30.7387H27.2307C27.2293 25.4267 27.2267 25.4267 27.224 25.4267C26.7747 25.4267 26.3613 25.2693 26.0373 25.008L26.0413 25.0107C25.5693 24.6227 25.1493 24.2027 24.7733 23.7467L24.7613 23.7307C24.1471 23.0364 23.6022 22.452 23.1267 21.9773C21.5427 20.4716 20.3738 19.7187 19.62 19.7187C19.592 19.716 19.56 19.7147 19.5267 19.7147C19.3067 19.7147 19.1013 19.7827 18.932 19.8987L18.936 19.896C18.7973 20.0693 18.7133 20.2933 18.7133 20.5347C18.7133 20.5827 18.716 20.628 18.7227 20.6747V20.6693C18.6867 21.088 18.6653 21.5747 18.6653 22.0667C18.6653 22.2253 18.668 22.3827 18.672 22.54V22.5173V24.0627C18.6853 24.1253 18.6933 24.1973 18.6933 24.2707C18.6933 24.5933 18.5467 24.8813 18.3173 25.072L18.316 25.0733C17.8 25.3093 17.1973 25.448 16.5613 25.448C16.4253 25.448 16.292 25.4413 16.16 25.4293L16.1773 25.4307C14.0787 25.3907 12.132 24.776 10.4773 23.74L10.524 23.7667C8.50933 22.5427 6.84 20.9493 5.568 19.0667L5.532 19.0107C4.324 17.408 3.19733 15.5973 2.23733 13.688L2.144 13.4827C1.58266 12.4133 1.00133 11.0987 0.499998 9.74666L0.419998 9.5C0.215998 8.892 0.0679978 8.18533 0.00666447 7.45333L0.0039978 7.42C0.0039978 6.74622 0.400442 6.40933 1.19333 6.40933H4.7C4.732 6.40666 4.76933 6.40533 4.808 6.40533C5.13866 6.40533 5.444 6.51866 5.68533 6.70933L5.68266 6.70666C5.94933 6.99866 6.14667 7.35733 6.244 7.75733L6.248 7.77333C6.89333 9.596 7.57733 11.1267 8.364 12.5933L8.27466 12.4107C8.91733 13.704 9.628 14.8173 10.4387 15.8453L10.408 15.804C11.1191 16.6769 11.6738 17.1133 12.072 17.1133C12.084 17.1147 12.0987 17.1147 12.1147 17.1147C12.312 17.1147 12.484 17.008 12.5773 16.848L12.5787 16.8453C12.6773 16.592 12.7347 16.2973 12.7347 15.9907C12.7347 15.9253 12.732 15.86 12.7267 15.796V15.804V10.632C12.6987 10.0227 12.5493 9.45333 12.3 8.94266L12.3107 8.968C12.1453 8.616 11.9467 8.312 11.7107 8.04133L11.7147 8.04666C11.496 7.828 11.3467 7.54133 11.3 7.22133L11.2987 7.21333C11.2987 6.98666 11.4027 6.78266 11.5653 6.64933L11.5667 6.648C11.728 6.5 11.944 6.41066 12.18 6.41066H12.1907H17.7187C17.748 6.40666 17.7813 6.40533 17.816 6.40533C18.076 6.40533 18.3093 6.52266 18.464 6.70666L18.4653 6.708C18.6027 6.95866 18.684 7.25866 18.684 7.576C18.684 7.62666 18.6813 7.676 18.6773 7.72533V7.71866V14.616C18.6747 14.648 18.6733 14.6853 18.6733 14.7227C18.6733 14.968 18.7413 15.1987 18.8587 15.3947L18.856 15.3893C18.9533 15.5333 19.116 15.6267 19.3 15.6267C19.5347 15.6107 19.7493 15.5333 19.9293 15.4107L19.9253 15.4133C20.288 15.164 20.6 14.88 20.8707 14.5587L20.876 14.552C21.6853 13.6373 22.432 12.6267 23.0827 11.552L23.1347 11.4587C23.5933 10.6987 24.0893 9.76266 24.5387 8.80133L24.6213 8.60533L25.216 7.416C25.4227 6.82133 25.9773 6.40266 26.6293 6.40266C26.6547 6.40266 26.68 6.40266 26.7053 6.404H26.7013H30.2093C31.1569 6.404 31.5124 6.84 31.276 7.712H31.2747Z"
          fill="#1984FF"/>
</svg>
